HIERARCHY
ROOT RootJoint
{
    OFFSET   0.000000   0.000000   0.000000
    CHANNELS 6 Xposition Yposition Zposition Xrotation Yrotation Zrotation
    JOINT pelvis_lowerback
    {
        OFFSET   0.000000   0.093605   0.000000
        CHANNELS 3 Xrotation Yrotation Zrotation
        JOINT lowerback_torso
        {
            OFFSET   0.000000   0.100000   0.000000
            CHANNELS 3 Xrotation Yrotation Zrotation
            JOINT torso_head
            {
                OFFSET   0.000000   0.282350   0.000000
                CHANNELS 3 Xrotation Yrotation Zrotation
                End Site
                {
                    OFFSET   0.000000   0.192650   0.000000
                }
            }
            JOINT rTorso_Clavicle
            {
                OFFSET  -0.001000   0.157500   0.000000
                CHANNELS 3 Xrotation Yrotation Zrotation
                JOINT rShoulder
                {
                    OFFSET  -0.117647   0.000000   0.000000
                    CHANNELS 3 Xrotation Yrotation Zrotation
                    JOINT rElbow
                    {
                        OFFSET  -0.245000   0.000000   0.000000
                        CHANNELS 3 Xrotation Yrotation Zrotation
                        JOINT rWrist
                        {
                            OFFSET  -0.240000   0.000000   0.000000
                            CHANNELS 3 Xrotation Yrotation Zrotation
                            End Site
                            {
                                OFFSET  -0.116353  -0.002500   0.000000
                            }
                        }
                    }
                }
            }
            JOINT lTorso_Clavicle
            {
                OFFSET   0.001000   0.157500   0.000000
                CHANNELS 3 Xrotation Yrotation Zrotation
                JOINT lShoulder
                {
                    OFFSET   0.117647   0.000000   0.000000
                    CHANNELS 3 Xrotation Yrotation Zrotation
                    JOINT lElbow
                    {
                        OFFSET   0.245000   0.000000   0.000000
                        CHANNELS 3 Xrotation Yrotation Zrotation
                        JOINT lWrist
                        {
                            OFFSET   0.240000   0.000000   0.000000
                            CHANNELS 3 Xrotation Yrotation Zrotation
                            End Site
                            {
                                OFFSET   0.116353  -0.002500   0.000000
                            }
                        }
                    }
                }
            }
        }
    }
    JOINT rHip
    {
        OFFSET  -0.100000  -0.051395   0.000000
        CHANNELS 3 Xrotation Yrotation Zrotation
        JOINT rKnee
        {
            OFFSET   0.000000  -0.410000   0.000000
            CHANNELS 3 Xrotation Yrotation Zrotation
            JOINT rAnkle
            {
                OFFSET   0.000000  -0.390000   0.000000
                CHANNELS 3 Xrotation Yrotation Zrotation
                JOINT rToeJoint
                {
                    OFFSET   0.000000  -0.050000   0.130000
                    CHANNELS 3 Xrotation Yrotation Zrotation
                    End Site
                    {
                        OFFSET  -0.010000   0.002000   0.060000
                    }
                }
            }
        }
    }
    JOINT lHip
    {
        OFFSET   0.100000  -0.051395   0.000000
        CHANNELS 3 Xrotation Yrotation Zrotation
        JOINT lKnee
        {
            OFFSET   0.000000  -0.410000   0.000000
            CHANNELS 3 Xrotation Yrotation Zrotation
            JOINT lAnkle
            {
                OFFSET   0.000000  -0.390000   0.000000
                CHANNELS 3 Xrotation Yrotation Zrotation
                JOINT lToeJoint
                {
                    OFFSET   0.000000  -0.050000   0.130000
                    CHANNELS 3 Xrotation Yrotation Zrotation
                    End Site
                    {
                        OFFSET   0.010000   0.002000   0.060000
                    }
                }
            }
        }
    }
}
MOTION
Frames: 10
Frame Time:   0.008333
 -2.417739   0.917343   4.034973  -4.504517   6.138539   1.627926   6.483925   0.722655  -1.243976   0.369946  -2.517817  -1.124232   2.682835  -1.488457  -1.834953  -5.236935  -3.841120 -24.064046  -4.746889   1.364373   2.736375   0.000711   2.801015  -0.000805   8.273149   1.667135  -6.457978  -5.477212   0.973888  23.199899  -3.123855  -2.672489  -2.288360   0.000284  -3.333908   0.000252   9.721839  -4.082493   2.404373   9.478809  -5.757446  -4.790028   2.388282  -0.000005  -0.000037  -6.282719 -10.123028   3.739783  -0.750084   0.000006  -0.000006   6.547714   3.353345   2.662614   2.436902   0.000002  -0.000029  -4.107078   6.494585  -0.432259  -0.020811  -0.000002   0.000000
 -2.417715   0.917359   4.034861  -4.467553   6.084663   1.615203   6.461935   0.715554  -1.220344   0.336539  -2.531405  -1.124737   2.723598  -1.460426  -1.867944  -5.236588  -3.808124 -24.038314  -4.754037   1.427317   2.832668   0.000699   2.911353  -0.000641   8.315907   1.707071  -6.654445  -5.482622   0.938549  23.183936  -3.234798  -2.702261  -2.376132   0.000245  -3.360533   0.000162   9.721385  -4.115465   2.591780   9.400965  -5.728963  -4.794603   2.435271  -0.000005  -0.000042  -6.291955 -10.092819   3.730527  -0.744465   0.000006  -0.000005   6.502307   3.372760   2.660230   2.455184   0.000003  -0.000029  -4.119687   6.530332  -0.397482  -0.014223  -0.000003   0.000000
 -2.417671   0.917368   4.034769  -4.432308   6.030266   1.600440   6.439487   0.708538  -1.193996   0.300956  -2.544449  -1.123655   2.760265  -1.433828  -1.900625  -5.235849  -3.774554 -24.007964  -4.761427   1.488236   2.927622   0.000687   3.015519  -0.000506   8.355413   1.750264  -6.848604  -5.488058   0.903037  23.165575  -3.339581  -2.730522  -2.461176   0.000212  -3.384688   0.000094   9.716186  -4.138547   2.779386   9.328198  -5.700333  -4.797837   2.478688  -0.000004  -0.000046  -6.300555 -10.062275   3.722207  -0.739359   0.000005  -0.000004   6.457559   3.391047   2.658906   2.475090   0.000003  -0.000030  -4.111442   6.564303  -0.360063  -0.132788   0.000030   0.000003
 -2.417609   0.917382   4.034687  -4.397983   5.978730   1.590657   6.416441   0.700521  -1.171515   0.265617  -2.557723  -1.122455   2.793677  -1.409072  -1.931389  -5.234777  -3.743002 -23.974184  -4.768296   1.545205   3.020125   0.000670   3.112908  -0.000399   8.393579   1.794115  -7.030572  -5.492539   0.868690  23.145833  -3.437430  -2.757556  -2.542316   0.000184  -3.407450   0.000043   9.711000  -4.160370   2.958995   9.258972  -5.673599  -4.806503   2.518564  -0.000003  -0.000047  -6.308606 -10.033852   3.713572  -0.734327   0.000005  -0.000003   6.419028   3.409960   2.652254   2.490210   0.000003  -0.000028  -4.128489   6.598223  -0.330608  -0.102759   0.000019   0.000003
 -2.417532   0.917395   4.034612  -4.365266   5.930456   1.582122   6.394071   0.691956  -1.148977   0.231625  -2.571138  -1.120213   2.824424  -1.386001  -1.960276  -5.233677  -3.713915 -23.939715  -4.774655   1.597977   3.108707   0.000647   3.203670  -0.000313   8.430307   1.836386  -7.200443  -5.496285   0.835952  23.125745  -3.528750  -2.783093  -2.619422   0.000159  -3.428825   0.000006   9.706111  -4.182143   3.128963   9.193707  -5.648578  -4.816452   2.555644  -0.000001  -0.000046  -6.316130 -10.007424   3.705155  -0.729494   0.000004  -0.000002   6.383386   3.427711   2.644100   2.502755   0.000003  -0.000026  -4.143103   6.629848  -0.303234  -0.078404   0.000011   0.000002
 -2.417443   0.917406   4.034543  -4.334579   5.884821   1.574646   6.372843   0.683222  -1.126566   0.199516  -2.584426  -1.116786   2.852971  -1.364484  -1.987233  -5.232646  -3.687297 -23.905460  -4.780537   1.646740   3.192906   0.000619   3.288197  -0.000246   8.465582   1.876361  -7.360118  -5.499516   0.805071  23.106012  -3.613967  -2.807007  -2.692178   0.000138  -3.448830  -0.000020   9.701539  -4.203571   3.290426   9.132543  -5.624953  -4.827451   2.590273   0.000000  -0.000045  -6.323179  -9.982627   3.697068  -0.724839   0.000004  -0.000002   6.350282   3.444517   2.634785   2.514442   0.000003  -0.000024  -4.156398   6.659580  -0.277877  -0.058672   0.000006   0.000002
 -2.417342   0.917417   4.034479  -4.305895   5.841555   1.568111   6.352798   0.674455  -1.104352   0.169353  -2.597455  -1.112297   2.879581  -1.344417  -2.012359  -5.231724  -3.663027 -23.872020  -4.785975   1.691750   3.272550   0.000586   3.366896  -0.000193   8.499430   1.913875  -7.510979  -5.502368   0.776116  23.087120  -3.693486  -2.829283  -2.760484   0.000119  -3.467505  -0.000038   9.697264  -4.224298   3.444429   9.075288  -5.602589  -4.839331   2.622642   0.000001  -0.000043  -6.329785  -9.959288   3.689303  -0.720330   0.000004  -0.000002   6.319527   3.460485   2.624502   2.525608   0.000003  -0.000022  -4.168711   6.687600  -0.254410  -0.042706   0.000003   0.000002
 -2.417231   0.917425   4.034433  -4.290150   5.761136   1.558811   6.350156   0.669902  -1.079919   0.134024  -2.597426  -1.109849   2.906351  -1.325965  -2.039589  -5.252233  -3.606648 -23.840519  -4.846205   1.733568   3.353618   0.000484   3.380086  -0.000145   8.550362   1.977487  -7.690734  -5.545505   0.733782  23.067633  -3.885677  -2.831154  -2.821427   0.000086  -3.435415   0.000053   9.696124  -4.267936   3.625472   9.017031  -5.565549  -4.854561   2.676299   0.000003  -0.000056  -6.345561  -9.912647   3.678529  -0.714882   0.000004  -0.000001   6.316366   3.474479   2.612601   2.526504   0.000003  -0.000018  -4.182585   6.755127  -0.228245  -0.029145   0.000001   0.000001
 -2.417110   0.917430   4.034410  -4.276114   5.677658   1.549677   6.346111   0.662711  -1.056518   0.099326  -2.596833  -1.106336   2.931722  -1.309324  -2.065479  -5.272163  -3.554224 -23.810105  -4.902996   1.770900   3.429945   0.000397   3.390321  -0.000109   8.595570   2.022652  -7.866574  -5.588895   0.697448  23.052102  -4.066244  -2.828401  -2.875530   0.000062  -3.402558   0.000125   9.689392  -4.289729   3.811234   8.962457  -5.527274  -4.870628   2.728494   0.000004  -0.000068  -6.361872  -9.864464   3.668241  -0.709521   0.000004  -0.000001   6.316522   3.490913   2.600111   2.528710   0.000002  -0.000016  -4.198563   6.823218  -0.203997  -0.018141  -0.000000   0.000001
 -2.416980   0.917433   4.034406  -4.263019   5.596276   1.541359   6.340065   0.653849  -1.033981   0.064954  -2.597668  -1.101837   2.955585  -1.293991  -2.089803  -5.291673  -3.507828 -23.781500  -4.955902   1.803575   3.501246   0.000326   3.398983  -0.000081   8.638158   2.059313  -8.035221  -5.630235   0.665274  23.039614  -4.234773  -2.824003  -2.924335   0.000045  -3.371047   0.000176   9.682320  -4.302728   3.993756   8.912163  -5.489995  -4.887349   2.777345   0.000005  -0.000075  -6.378074  -9.817798   3.658423  -0.704251   0.000004  -0.000001   6.318219   3.507930   2.586865   2.531746   0.000002  -0.000014  -4.215510   6.888519  -0.181684  -0.009275  -0.000001   0.000001
